<svg height="512" viewBox="0 0 128 128" width="512" xmlns="http://www.w3.org/2000/svg"><g><path d="m73.25 113.333h-18.5l4.75-27.875h9z" fill="#67b5bc"/><path d="m6.5 6.5h115v84.529h-115z" fill="#79d5dd"/><path d="m30.735-5.735h66.529v103h-66.529z" fill="#f0f0fb" transform="matrix(0 1 -1 0 109.765 -18.235)"/><g fill="#f4d844"><path d="m48.927 60.841a1.745 1.745 0 0 1 -1.238-.513l-13.326-13.328a1.751 1.751 0 0 1 0-2.475l13.326-13.325a1.75 1.75 0 0 1 2.475 2.475l-12.089 12.09 12.089 12.089a1.75 1.75 0 0 1 -1.237 2.987z"/><path d="m79.073 60.841a1.75 1.75 0 0 1 -1.237-2.987l12.089-12.089-12.089-12.089a1.75 1.75 0 1 1 2.475-2.476l13.326 13.327a1.751 1.751 0 0 1 0 2.475l-13.326 13.326a1.745 1.745 0 0 1 -1.238.513z"/></g><path d="m53.78 71.057a1.751 1.751 0 0 1 -1.6-2.448l20.433-47.083a1.75 1.75 0 0 1 3.211 1.394l-20.437 47.08a1.751 1.751 0 0 1 -1.607 1.057z" fill="#f4d844"/><path d="m37 20.25h-11.167a1.75 1.75 0 0 1 0-3.5h11.167a1.75 1.75 0 0 1 0 3.5z" fill="#d0d0da"/><path d="m71.9 109.5h-15.8a12 12 0 0 0 -12 12h39.8a12 12 0 0 0 -12-12z" fill="#79d5dd"/></g></svg>